<?xml version="1.0" encoding="UTF-8"?>
<svg id="Layer_1" xmlns="http://www.w3.org/2000/svg" version="1.1" viewBox="0 0 540 540">
  <!-- Generator: Adobe Illustrator 29.5.1, SVG Export Plug-In . SVG Version: 2.1.0 Build 141)  -->
  <defs>
    <style>
      .st0 {
        fill: #265ce3;
      }

      .st1 {
        fill: #ff3d29;
      }
    </style>
  </defs>
  <path class="st0" d="M40.5,0h81c22.368,0,40.5,18.132,40.5,40.5v81c0,22.368-18.132,40.5-40.5,40.5H40.5c-22.3676,0-40.5-18.132-40.5-40.5V40.5C0,18.132,18.1324,0,40.5,0h0Z"/>
  <path class="st1" d="M40.5,189h81c22.368,0,40.5,18.132,40.5,40.5v81c0,22.368-18.132,40.5-40.5,40.5H40.5c-22.3676,0-40.5-18.132-40.5-40.5v-81c0-22.368,18.1324-40.5,40.5-40.5h0Z"/>
  <path class="st1" d="M40.5,378h81c22.368,0,40.5,18.132,40.5,40.5v81c0,22.368-18.132,40.5-40.5,40.5H40.5c-22.3676,0-40.5-18.132-40.5-40.5v-81c0-22.368,18.1324-40.5,40.5-40.5h0Z"/>
  <path class="st0" d="M229.5,0h81c22.368,0,40.5,18.132,40.5,40.5v81c0,22.368-18.132,40.5-40.5,40.5h-81c-22.368,0-40.5-18.132-40.5-40.5V40.5c0-22.368,18.132-40.5,40.5-40.5h0Z"/>
  <path class="st1" d="M229.5,189h81c22.368,0,40.5,18.132,40.5,40.5v81c0,22.368-18.132,40.5-40.5,40.5h-81c-22.368,0-40.5-18.132-40.5-40.5v-81c0-22.368,18.132-40.5,40.5-40.5h0Z"/>
  <path class="st1" d="M229.5,378h81c22.368,0,40.5,18.132,40.5,40.5v81c0,22.368-18.132,40.5-40.5,40.5h-81c-22.368,0-40.5-18.132-40.5-40.5v-81c0-22.368,18.132-40.5,40.5-40.5h0Z"/>
  <path class="st0" d="M418.5,0h81c22.368,0,40.5,18.132,40.5,40.5v81c0,22.368-18.132,40.5-40.5,40.5h-81c-22.368,0-40.5-18.132-40.5-40.5V40.5c0-22.368,18.132-40.5,40.5-40.5h0Z"/>
  <path class="st0" d="M418.5,189h81c22.368,0,40.5,18.132,40.5,40.5v81c0,22.368-18.132,40.5-40.5,40.5h-81c-22.368,0-40.5-18.132-40.5-40.5v-81c0-22.368,18.132-40.5,40.5-40.5h0Z"/>
  <path class="st0" d="M418.5,378h81c22.368,0,40.5,18.132,40.5,40.5v81c0,22.368-18.132,40.5-40.5,40.5h-81c-22.368,0-40.5-18.132-40.5-40.5v-81c0-22.368,18.132-40.5,40.5-40.5h0Z"/>
</svg>