<svg version="1.1" id="slinky_logo" xmlns="http://www.w3.org/2000/svg" x="0" y="0" viewBox="0 0 711.06 612" style="enable-background:new 0 0 711.06 612" xml:space="preserve"><style>.st0{fill:none;stroke:#00abe9;stroke-width:5;stroke-miterlimit:10}</style><switch><g><path d="M56.69 511.8v-23.78h62.15c7.53 0 10.36-3.3 10.36-10.12v-6.12c0-5.18-2.59-8-8.48-8H74.11c-12.24 0-17.42-6.36-17.42-16.48v-31.08c0-13.89 5.18-20.25 21.19-20.25h75.57v22.84H91.3c-7.53 0-9.89 3.3-9.89 10.12v6.12c0 5.18 2.35 8.24 8.24 8.24h47.32c12.48 0 17.66 6.36 17.66 16.25v32.02c0 13.89-5.65 20.25-21.42 20.25H56.69zM178.64 511.8V347.47h26.13V511.8h-26.13zM229.73 511.8V395.97h26.37V511.8h-26.37zM363.45 511.8v-81.46c0-8.24-3.3-11.54-10.36-11.54H317.3c-7.06 0-10.36 3.3-10.36 11.54v81.46h-26.13v-93.23c0-16.25 7.06-22.6 21.66-22.6h65.45c14.6 0 21.66 7.3 21.66 22.6v93.23h-26.13zM492.7 511.8c0-4-.24-4.94-2.12-6.83l-50.85-49.44v56.27H413.6V347.47h26.13v101.71l48.97-45.91c2.12-2.12 2.59-3.53 2.59-7.3h32.49c0 6.12-1.65 8.48-5.89 12.24l-49.44 43.08 53.91 49.67c3.53 3.3 4.24 5.18 4.24 10.83h-33.9zM582.4 550.88v-41.91l-36.96-46.14c-6.36-8-8-11.3-8-22.37v-44.5h27.78v48.26c0 3.3.24 4.94 1.88 6.59l28.96 35.31 28.72-35.31c1.65-1.65 2.12-3.3 2.12-6.59v-48.26h27.54v44.5c0 11.07-2.12 14.6-8.24 22.37l-37.43 46.38v41.67H582.4z"/><ellipse transform="rotate(-75.901 371.72 154.409)" class="st0" cx="371.73" cy="154.41" rx="84.7" ry="13.57"/><ellipse transform="rotate(-59.65 409.89 165.473)" class="st0" cx="409.91" cy="165.48" rx="83.56" ry="13.33"/><ellipse transform="rotate(-48.908 429.24 178.985)" class="st0" cx="429.26" cy="178.99" rx="82.17" ry="13.14"/><ellipse transform="rotate(-38.418 446.63 194.537)" class="st0" cx="446.62" cy="194.54" rx="81.19" ry="12.95"/><ellipse transform="rotate(-28.717 456.891 204.96)" class="st0" cx="456.89" cy="204.96" rx="84.73" ry="12.73"/><ellipse transform="rotate(-13.856 475.147 238.84)" class="st0" cx="475.23" cy="238.88" rx="86.15" ry="12.7"/><ellipse transform="rotate(-6.448 479.943 258.056)" class="st0" cx="479.85" cy="258.01" rx="86.2" ry="11.81"/><ellipse transform="rotate(-1.324 480.063 276.342)" class="st0" cx="480.71" cy="276.7" rx="86.01" ry="12.69"/><path class="st0" d="M393.33 290.98c0-7.01 39.05-12.69 87.23-12.69s87.23 5.68 87.23 12.69-39.05 12.69-87.23 12.69-87.23-5.68-87.23-12.69z"/><ellipse transform="rotate(-21.384 470.032 222.19)" class="st0" cx="469.98" cy="222.17" rx="87.19" ry="12.73"/><ellipse class="st0" cx="357.68" cy="151.99" rx="13.52" ry="84.09"/><ellipse transform="rotate(-67.512 393.342 159.024)" class="st0" cx="393.35" cy="159.03" rx="83.78" ry="13.33"/><path class="st0" d="M390.41 303.73c0-7.01 39.05-12.69 87.23-12.69s87.23 5.68 87.23 12.69-39.05 12.69-87.23 12.69-87.23-5.68-87.23-12.69z"/><ellipse transform="rotate(-14.3 343.055 154.073)" class="st0" cx="343.08" cy="154.06" rx="13.75" ry="84.77"/><ellipse transform="rotate(-30.717 304.35 165.12)" class="st0" cx="304.37" cy="165.13" rx="13.46" ry="83.85"/><ellipse transform="rotate(-40.872 284.591 178.448)" class="st0" cx="284.6" cy="178.45" rx="13.23" ry="82.52"/><ellipse transform="rotate(-52.006 268.326 193.39)" class="st0" cx="268.34" cy="193.4" rx="13" ry="82.28"/><ellipse transform="rotate(-61.633 255.71 204.612)" class="st0" cx="255.71" cy="204.61" rx="12.77" ry="85.64"/><ellipse transform="rotate(-76.338 237.162 238.522)" class="st0" cx="237.16" cy="238.52" rx="12.71" ry="87.29"/><ellipse transform="rotate(-83.644 232.496 257.671)" class="st0" cx="232.49" cy="257.66" rx="11.81" ry="87.39"/><ellipse transform="rotate(-88.699 231.57 276.357)" class="st0" cx="231.57" cy="276.35" rx="12.69" ry="87.21"/><ellipse class="st0" cx="231.72" cy="290.62" rx="88.45" ry="12.69"/><ellipse transform="rotate(-68.894 243.508 219.817)" class="st0" cx="243.5" cy="219.81" rx="12.75" ry="88.24"/><ellipse transform="rotate(-22.786 321.118 157.662)" class="st0" cx="321.15" cy="157.67" rx="13.49" ry="83.95"/><ellipse class="st0" cx="233.66" cy="303.37" rx="88.45" ry="12.69"/></g></switch></svg>
